<svg width="207" height="72" viewBox="0 0 207 72" fill="none" xmlns="http://www.w3.org/2000/svg">
    <path
        d="M35.3763 56.0002C25.8696 56.0002 16.014 48.0079 16 37.0793C15.9965 34.2931 17.9662 30.9329 21.6859 30.9329C25.4055 30.9329 27.2182 33.1154 27.5148 37.0793C27.9894 43.4037 30.4546 48.2574 30.9361 49.1838C30.9762 49.2589 30.9989 49.3042 31.0094 49.3269C32.4871 52.3417 35.4182 54.1945 39.0314 54.1945C41.3553 54.1945 43.3459 53.3361 45.0766 51.8759C42.0496 54.786 38.8552 56.0002 35.3728 56.0002H35.3763Z"
        fill="#022A9B" />
    <path
        d="M57.776 24.9346C67.2809 24.9346 77.1366 32.9269 77.1523 43.8555C77.1558 46.6417 75.186 50.002 71.4664 50.002C67.7468 50.002 65.9341 47.8194 65.6375 43.8555C65.1245 37.0164 62.2929 31.8975 62.1412 31.6079C60.6285 28.7188 57.6068 26.7403 54.1192 26.7403C51.7953 26.7403 49.8046 27.5987 48.0739 29.059C51.1009 26.1489 54.2954 24.9346 57.7777 24.9346H57.776Z"
        fill="#022A9B" />
    <path
        d="M62.1343 31.5974C60.6181 28.7134 57.6016 26.7419 54.1193 26.7419C51.7954 26.7419 49.8047 27.6003 48.074 29.0606L48.0496 29.0815C41.3256 35.1006 37.4873 46.5021 30.9379 49.1836C30.978 49.2586 31.0007 49.304 31.0111 49.3267C32.4889 52.3415 35.4199 54.1943 39.0331 54.1943C41.357 54.1943 43.3477 53.3359 45.0784 51.8756C52.0553 45.6768 55.1207 34.8145 62.1343 31.5974Z"
        fill="#FF5874" />
    <path
        d="M174.228 26.3825V21.4521C177.342 21.2968 179.47 19.0636 179.626 16.0017H184.608C184.504 21.7643 179.989 26.1766 174.226 26.3842L174.228 26.3825Z"
        fill="#022A9B" />
    <path
        d="M145.92 49.9687V55.3963H144.312C140.693 55.3963 138.432 53.8889 137.729 51.0748C135.669 54.0896 132.403 56 128.483 56C121.247 56 115.87 50.2216 115.87 42.5835C115.87 34.9453 121.247 29.167 128.483 29.167C132.251 29.167 135.418 30.9256 137.476 33.7398V29.7706H143.105V47.6099C143.105 49.0667 143.959 49.9722 145.467 49.9722H145.919L145.92 49.9687ZM137.478 42.5817C137.478 38.0596 134.111 34.5912 129.589 34.5912C125.066 34.5912 121.649 38.0578 121.649 42.5817C121.649 47.1057 125.016 50.5706 129.589 50.5706C134.161 50.5706 137.478 47.1039 137.478 42.5817Z"
        fill="#022A9B" />
    <path d="M150.481 16H156.46V55.3963H150.481V16Z" fill="#022A9B" />
    <path
        d="M190.584 49.9687V55.3963H188.975C185.357 55.3963 183.096 53.8889 182.393 51.0748C180.332 54.0896 177.066 56 173.148 56C165.911 56 160.536 50.2216 160.536 42.5835C160.536 34.9453 165.913 29.167 173.148 29.167C176.916 29.167 180.083 30.9256 182.142 33.7398V29.7706H187.77V47.6099C187.77 49.0667 188.625 49.9722 190.132 49.9722H190.584V49.9687ZM182.142 42.5817C182.142 38.0596 178.774 34.5912 174.252 34.5912C169.73 34.5912 166.312 38.0578 166.312 42.5817C166.312 47.1057 169.679 50.5706 174.252 50.5706C178.825 50.5706 182.142 47.1039 182.142 42.5817Z"
        fill="#022A9B" />
    <path
        d="M100.193 55.9983C93.0657 55.9983 88.6796 52.1356 88.6796 46.1636V29.8562H94.2661V44.3544C94.2661 48.819 96.6109 50.63 100.201 50.63C103.991 50.63 106.535 48.6201 106.535 44.3544V29.8562H112.121V46.209C112.121 52.7079 107.353 55.9983 100.194 55.9983H100.193Z"
        fill="#022A9B" />
</svg>
    